<?xml version="1.0" encoding="UTF-8" standalone="no"?>
<svg
   xmlns:dc="http://purl.org/dc/elements/1.1/"
   xmlns:cc="http://creativecommons.org/ns#"
   xmlns:rdf="http://www.w3.org/1999/02/22-rdf-syntax-ns#"
   xmlns:svg="http://www.w3.org/2000/svg"
   xmlns="http://www.w3.org/2000/svg"
   xmlns:xlink="http://www.w3.org/1999/xlink"
   xmlns:sodipodi="http://sodipodi.sourceforge.net/DTD/sodipodi-0.dtd"
   xmlns:inkscape="http://www.inkscape.org/namespaces/inkscape"
   width="329.67"
   height="96.124"
   viewBox="0 0 329.67 96.124"
   version="1.1"
   id="svg120"
   sodipodi:docname="logo.svg"
   inkscape:label="symbol"
   inkscape:version="0.92.1 r15371">
  <metadata
     id="metadata124">
    <rdf:RDF>
      <cc:Work
         rdf:about="">
        <dc:format>image/svg+xml</dc:format>
        <dc:type
           rdf:resource="http://purl.org/dc/dcmitype/StillImage" />
      </cc:Work>
    </rdf:RDF>
  </metadata>
  <sodipodi:namedview
     pagecolor="#ffffff"
     bordercolor="#666666"
     borderopacity="1"
     objecttolerance="10"
     gridtolerance="10"
     guidetolerance="10"
     inkscape:pageopacity="0"
     inkscape:pageshadow="2"
     inkscape:window-width="1366"
     inkscape:window-height="704"
     id="namedview122"
     showgrid="false"
     inkscape:zoom="1.8488974"
     inkscape:cx="157.40886"
     inkscape:cy="32.323172"
     inkscape:window-x="0"
     inkscape:window-y="27"
     inkscape:window-maximized="1"
     inkscape:current-layer="svg120" />
  <defs
     id="defs4">
    <style
       id="style2">
       .a{fill:#d8001e;}
       .b{fill:#bdc61a;}
       .c{fill:#f9b200;}
       .d{fill:#2c8f36;}
       .e{fill:#423a8f;}
       .f{fill:#0074bb;}
       .g{fill:#f67d11;}
       .h{fill:#0f6699;}
       .i{fill:#d46d11;}
       .j{fill:#56a55e;}
       .l{fill:#6861a5;}
       .m{fill:#e0334b;}
       .n{fill:#fac133;}
       .o{fill:#cad148;}
       .path-i{fill:#0098b5;}
       .friend{fill:#e74d16;}
       .slogan{fill:#4e4e4e;}
     </style>
    <symbol
       id="symbol">
      <path
         inkscape:connector-curvature="0"
         id="path8"
         d="m 44.142,17.544 a 53.021,53.021 0 0 1 15.008,0.962 92.076,92.076 0 0 1 15.991,4.863 C 65.174,13.58 58.611,12.638 58.541,12.313 a 43.293,43.293 0 0 0 -32.855,1.039 58.431,58.431 0 0 1 12.676,5.167 38.119,38.119 0 0 1 5.78,-0.975 z"
         class="a" />
      <path
         inkscape:connector-curvature="0"
         id="path12"
         d="M 55.8,34.977 A 60.918,60.918 0 0 0 38.021,19.828 C 23.451,23.601 10.88,32.773 1.461,41.713 A 43.267,43.267 0 0 0 8.919,79.124 C 30.245,72.748 53.617,41.282 55.8,34.977 Z"
         class="b" />
      <path
         inkscape:connector-curvature="0"
         id="path14"
         d="M 23.9,14.102 A 43.25,43.25 0 0 0 2.078,39.477 c 9.084,-8.363 20.876,-16.7 34.5,-20.538 A 56.4,56.4 0 0 0 23.9,14.102 Z"
         class="c" />
      <path
         inkscape:connector-curvature="0"
         id="path16"
         d="m 12.687,79.154 c 3.854,-0.9 26.932,-6.024 30.99,-7.211 11.031,-3.241 18.955,-8.234 24.661,-13.782 q -1.275,-3.53 -3.009,-7.407 a 72.9,72.9 0 0 0 -8.71,-14.7 c -2.227,6.259 -21.182,33.369 -43.932,43.1 z"
         class="d" />
      <path
         inkscape:connector-curvature="0"
         id="path18"
         d="m 60.233,19.946 a 52.013,52.013 0 0 0 -20.438,-0.542 62.8,62.8 0 0 1 17.451,15.313 73.719,73.719 0 0 1 9.3,15.5 q 1.636,3.65 2.861,7 a 47.684,47.684 0 0 0 7.226,-9.513 50.27,50.27 0 0 0 5.466,-13.967 43.3,43.3 0 0 0 -5.423,-8.384 92.205,92.205 0 0 0 -16.443,-5.407 z"
         class="e" />
      <path
         inkscape:connector-curvature="0"
         id="path20"
         d="m 68.751,59.39 c -5.814,5.529 -13.8,10.486 -24.759,13.694 -4.787,1.408 -13.954,3.6 -13.954,3.6 a 139.031,139.031 0 0 1 -20.3,3.561 c 0,0 2.737,3.91 5.437,5.565 A 43.166,43.166 0 0 0 72.439,84.687 44.184,44.184 0 0 0 72.475,75.739 69.324,69.324 0 0 0 68.751,59.39 Z"
         class="f" />
      <path
         inkscape:connector-curvature="0"
         id="path22"
         d="m 69.823,58.526 a 71.073,71.073 0 0 1 3.962,17.112 46.192,46.192 0 0 1 0.082,7.858 43.188,43.188 0 0 0 8.989,-48 51.955,51.955 0 0 1 -3.164,8.884 49.062,49.062 0 0 1 -9.869,14.146 z"
         class="g" />
      <path
         inkscape:connector-curvature="0"
         id="path36"
         d="m 71.659,71.301 c -0.7,0.613 -1.362,1.187 -1.968,1.717 -7.486,6.5 -16.125,10.414 -25.835,12.665 a 36.267,36.267 0 0 1 -7.131,0.905 C 31.106,86.763 25.742,85.797 20.091,85.212 q -1.451,0.83 -2.87,1.528 a 34.944,34.944 0 0 0 24.854,8.915 50.132,50.132 0 0 0 13.424,-2.4 45.375,45.375 0 0 0 17.23,-10.308 c 0.03,-0.861 0.034,-1.758 0.006,-2.693 -0.04,-1.411 -0.147,-2.908 -0.341,-4.493 -0.174,-1.414 -0.415,-2.9 -0.736,-4.457 z"
         class="h" />
      <path
         inkscape:connector-curvature="0"
         id="path38"
         d="m 85.415,50.191 c 0.988,7.269 -6.582,14.968 -12.4,20.18 0.392,1.819 0.681,3.543 0.881,5.18 0.188,1.542 0.3,3 0.349,4.385 0.018,0.62 0.028,1.226 0.022,1.819 a 41.868,41.868 0 0 0 9.753,-15.077 43.326,43.326 0 0 0 1.9,-10.672 c 0.015,-0.283 0.027,-0.567 0.037,-0.847 a 29.542,29.542 0 0 0 -0.543,-4.968 z"
         class="i" />
      <path
         d="m 56.619141,36.054688 c -0.981058,2.75727 -5.213973,9.562674 -11.582032,17.144531 6.764028,-1.90454 12.641338,-5.009225 17.109375,-8.751953 a 72.9,72.9 0 0 0 -5.527343,-8.392578 z"
         id="path40"
         inkscape:connector-curvature="0"
         class="j" />
      <path
         d="m 49.927734,18.658203 a 52.013,52.013 0 0 0 -10.132812,0.746094 62.8,62.8 0 0 1 17.451172,15.3125 73.719,73.719 0 0 1 5.861328,8.898437 C 69.279243,38.058126 72.402671,31.242212 70.84375,24.855469 70.680496,24.185627 70.463276,23.536214 70.207031,22.90625 A 92.205,92.205 0 0 0 60.232422,19.945312 52.013,52.013 0 0 0 49.927734,18.658203 Z"
         id="path3701"
         inkscape:connector-curvature="0"
         class="l" />
      <path
         d="m 44.636719,10.523438 c -3.702776,0.03704 -7.596266,0.512109 -11.544922,1.474609 -2.065483,0.503469 -4.052932,1.123091 -5.955078,1.833984 a 58.431,58.431 0 0 1 11.224609,4.6875 38.119,38.119 0 0 1 5.78125,-0.974609 53.021,53.021 0 0 1 15.007813,0.960937 92.076,92.076 0 0 1 10.287109,2.8125 C 65.594323,14.456261 56.021554,10.409541 44.636719,10.523438 Z"
         id="path3714"
         inkscape:connector-curvature="0"
         class="m" />
      <path
         d="M 25.412109,14.511719 C 13.544395,19.451552 5.5289189,28.180428 5.1191406,36.785156 13.736454,29.373691 24.42076,22.364289 36.578125,18.939453 A 56.4,56.4 0 0 0 25.412109,14.511719 Z"
         id="path3719"
         inkscape:connector-curvature="0"
         class="n" />
      <path
         d="M 38.021484,19.828125 C 25.26821,23.130672 14.045796,30.569854 5.1289062,38.369141 c 0.051261,0.814531 0.1652817,1.62517 0.3613282,2.429687 C 8.2508665,52.127652 24.661292,57.889848 42.375,53.869141 49.669029,45.544349 54.831172,37.777015 55.800781,34.976562 A 60.918,60.918 0 0 0 38.021484,19.828125 Z"
         id="path3724"
         inkscape:connector-curvature="0"
         class="o" />
    </symbol>
    <symbol
       id="path-i">
      <path
         id="path60"
         d="m 116.868,28.917 a 5.086,5.086 0 0 0 3.03,-1.991 5.281,5.281 0 0 0 1.143,-3.487 3.622,3.622 0 0 0 -1.466,-2.913 3.777,3.777 0 0 0 -3.207,-0.643 5.045,5.045 0 0 0 -3.023,1.988 5.246,5.246 0 0 0 -1.15,3.478 4,4 0 0 0 1.521,2.908 3.625,3.625 0 0 0 3.152,0.66 z m 5.198,35.835 c -0.12,0.191 -0.23,0.414 -0.34,0.588 a 6.737,6.737 0 0 1 -3.824,2.951 c -2.2,0.469 -3.526,-0.318 -3.971,-2.382 a 17.017,17.017 0 0 1 0.362,-7.1 l 4.222,-21.764 c 0.433,-1.435 0.442,-2.42 0.031,-2.965 -0.411,-0.545 -1.444,-0.638 -3.073,-0.286 l -5.838,1.373 a 5.349,5.349 0 0 1 1.879,2.5 5.678,5.678 0 0 1 0.15,1.749 l -3.062,18.831 a 17.134,17.134 0 0 0 -0.033,6.588 8.87,8.87 0 0 0 2.833,4.856 q 2.208,1.976 6.1,1.131 a 8.555,8.555 0 0 0 4.428,-2.837 9.916,9.916 0 0 1 0.257,-2.048 c -0.056,-0.392 -0.102,-0.788 -0.121,-1.185 z"
         inkscape:label="i"
         class="path-i" />
    </symbol>
    <symbol
       id="friend">
      <path
         id="path54"
         d="m 321.492,65.617 h -0.3 q -3.886,5.645 -11.626,5.643 -7.267,0 -11.305,-4.968 -4.038,-4.968 -4.04,-14.128 0,-9.159 4.057,-14.23 4.057,-5.071 11.289,-5.07 7.536,0 11.559,5.475 h 0.439 l -0.236,-2.669 -0.137,-2.6 V 17.993 h 5.61 v 52.592 h -4.566 z m -11.219,0.945 q 5.745,0 8.33,-3.126 2.585,-3.126 2.585,-10.089 v -1.183 q 0,-7.875 -2.617,-11.239 -2.617,-3.364 -8.366,-3.364 a 8.589,8.589 0 0 0 -7.554,3.837 q -2.62,3.837 -2.62,10.832 0,7.1 2.6,10.715 a 8.813,8.813 0 0 0 7.642,3.617 z m -31.13,4.023 V 46.621 q 0,-4.529 -2.061,-6.759 -2.061,-2.23 -6.456,-2.232 -5.814,0 -8.517,3.144 -2.703,3.144 -2.705,10.377 v 19.434 h -5.61 V 33.541 h 4.561 l 0.914,5.07 h 0.269 a 11.468,11.468 0 0 1 4.834,-4.242 15.716,15.716 0 0 1 6.928,-1.5 q 6.693,0 10.072,3.229 3.379,3.229 3.38,10.326 v 24.161 z m -48.535,0.671 q -8.213,0 -12.963,-5 -4.75,-5 -4.748,-13.89 0,-8.956 4.41,-14.23 a 14.654,14.654 0 0 1 11.849,-5.274 q 6.962,0 11.017,4.581 4.055,4.581 4.055,12.083 v 3.549 h -25.517 q 0.169,6.524 3.294,9.9 3.125,3.376 8.805,3.38 a 29.833,29.833 0 0 0 11.831,-2.5 v 5 a 29.651,29.651 0 0 1 -5.627,1.841 31.589,31.589 0 0 1 -6.406,0.56 z m -1.521,-33.7 a 9.167,9.167 0 0 0 -7.115,2.907 13.413,13.413 0 0 0 -3.128,8.045 h 19.369 q 0,-5.306 -2.365,-8.129 a 8.334,8.334 0 0 0 -6.761,-2.817 z M 196.979,23.503 a 3.722,3.722 0 0 1 0.947,-2.822 3.5,3.5 0 0 1 4.7,0.016 3.663,3.663 0 0 1 0.979,2.806 3.718,3.718 0 0 1 -0.979,2.822 3.274,3.274 0 0 1 -2.333,0.929 3.235,3.235 0 0 1 -2.365,-0.929 3.79,3.79 0 0 1 -0.949,-2.822 z m 6.084,47.082 h -5.61 V 33.541 h 5.61 z M 186.096,32.864 a 21.984,21.984 0 0 1 4.428,0.407 l -0.778,5.205 a 19.1,19.1 0 0 0 -4.055,-0.507 9.875,9.875 0 0 0 -7.691,3.65 13.318,13.318 0 0 0 -3.193,9.092 v 19.874 h -5.61 V 33.541 h 4.631 l 0.643,6.861 h 0.27 a 16.308,16.308 0 0 1 4.969,-5.576 11.18,11.18 0 0 1 6.386,-1.962 z m -46.035,37.721 h -5.745 V 21.17 h 27.546 v 5.1 h -21.8 v 18.087 h 20.481 v 5.1 h -20.482 z"
         inkscape:label="friend"
         class="friend" />
    </symbol>
    <symbol
       id="slogan">
      <path
         id="path114"
         d="m 327.686,89.017 a 1.235,1.235 0 0 1 0.251,-0.835 0.912,0.912 0 0 1 0.72,-0.283 0.975,0.975 0 0 1 0.745,0.283 1.18,1.18 0 0 1 0.269,0.835 1.153,1.153 0 0 1 -0.273,0.824 1.078,1.078 0 0 1 -1.435,0.028 1.125,1.125 0 0 1 -0.277,-0.852 z m -5.447,1.04 a 4.142,4.142 0 0 1 -3.156,-1.218 4.715,4.715 0 0 1 -1.156,-3.382 5.226,5.226 0 0 1 1.074,-3.465 3.568,3.568 0 0 1 2.883,-1.284 3.407,3.407 0 0 1 2.684,1.116 4.279,4.279 0 0 1 0.987,2.942 v 0.864 h -6.213 a 3.581,3.581 0 0 0 0.8,2.411 2.782,2.782 0 0 0 2.144,0.822 7.278,7.278 0 0 0 2.882,-0.606 v 1.217 a 7.174,7.174 0 0 1 -1.37,0.45 7.718,7.718 0 0 1 -1.559,0.133 z m -0.371,-8.2 a 2.229,2.229 0 0 0 -1.732,0.708 3.249,3.249 0 0 0 -0.761,1.959 h 4.714 a 3.01,3.01 0 0 0 -0.574,-1.979 2.028,2.028 0 0 0 -1.647,-0.695 z m -7.626,6.819 h -0.074 a 3.214,3.214 0 0 1 -2.831,1.374 3.349,3.349 0 0 1 -2.753,-1.209 5.321,5.321 0 0 1 -0.984,-3.44 5.422,5.422 0 0 1 0.987,-3.465 3.329,3.329 0 0 1 2.75,-1.235 3.277,3.277 0 0 1 2.813,1.334 h 0.107 l -0.058,-0.65 -0.031,-0.634 v -3.666 h 1.365 v 12.8 h -1.11 z m -2.733,0.23 a 2.486,2.486 0 0 0 2.028,-0.761 3.841,3.841 0 0 0 0.631,-2.456 v -0.288 a 4.518,4.518 0 0 0 -0.64,-2.736 2.418,2.418 0 0 0 -2.036,-0.819 2.088,2.088 0 0 0 -1.839,0.935 4.635,4.635 0 0 0 -0.638,2.637 4.452,4.452 0 0 0 0.634,2.609 2.142,2.142 0 0 0 1.859,0.883 z m -7.784,-10.478 a 0.907,0.907 0 0 1 0.23,-0.689 0.851,0.851 0 0 1 1.143,0 1.1,1.1 0 0 1 0,1.37 0.792,0.792 0 0 1 -0.567,0.227 0.784,0.784 0 0 1 -0.576,-0.227 0.916,0.916 0 0 1 -0.23,-0.681 z m 1.481,11.461 h -1.369 V 80.87 h 1.367 z m -4.131,-9.183 a 5.394,5.394 0 0 1 1.079,0.1 l -0.19,1.267 a 4.613,4.613 0 0 0 -0.987,-0.123 2.4,2.4 0 0 0 -1.873,0.889 3.24,3.24 0 0 0 -0.777,2.212 v 4.839 h -1.367 v -9.019 h 1.128 l 0.156,1.671 h 0.067 a 3.971,3.971 0 0 1 1.209,-1.358 2.731,2.731 0 0 1 1.555,-0.478 z m -14.137,9.351 a 4.142,4.142 0 0 1 -3.156,-1.218 4.714,4.714 0 0 1 -1.156,-3.382 5.226,5.226 0 0 1 1.074,-3.465 3.568,3.568 0 0 1 2.883,-1.284 3.4,3.4 0 0 1 2.683,1.116 4.273,4.273 0 0 1 0.988,2.942 v 0.864 h -6.213 a 3.581,3.581 0 0 0 0.8,2.411 2.782,2.782 0 0 0 2.144,0.822 7.278,7.278 0 0 0 2.882,-0.606 v 1.217 a 7.174,7.174 0 0 1 -1.37,0.45 7.719,7.719 0 0 1 -1.559,0.133 z m -0.371,-8.2 a 2.229,2.229 0 0 0 -1.732,0.708 3.259,3.259 0 0 0 -0.763,1.959 h 4.716 a 3.01,3.01 0 0 0 -0.574,-1.979 2.028,2.028 0 0 0 -1.647,-0.695 z m -7.612,8.032 v -5.834 a 2.351,2.351 0 0 0 -0.5,-1.646 2.044,2.044 0 0 0 -1.571,-0.543 2.574,2.574 0 0 0 -2.077,0.773 3.918,3.918 0 0 0 -0.659,2.537 v 4.716 h -1.367 v -12.8 h 1.367 v 3.877 a 8.591,8.591 0 0 1 -0.065,1.159 h 0.082 a 2.78,2.78 0 0 1 1.149,-1.024 3.732,3.732 0 0 1 1.7,-0.375 3.482,3.482 0 0 1 2.481,0.786 3.306,3.306 0 0 1 0.827,2.5 v 5.883 z m -9.207,-0.96 a 4.829,4.829 0 0 0 1.233,-0.165 v 1.045 a 2.447,2.447 0 0 1 -0.653,0.178 5,5 0 0 1 -0.779,0.07 q -2.615,0 -2.615,-2.756 v -5.372 h -1.292 V 81.27 l 1.292,-0.568 0.574,-1.925 h 0.791 v 2.089 h 2.62 v 1.063 h -2.616 v 5.31 a 1.83,1.83 0 0 0 0.386,1.251 1.342,1.342 0 0 0 1.059,0.439 z M 252.534,80.87 h 1.465 l 1.975,5.143 a 19.265,19.265 0 0 1 0.806,2.543 h 0.067 q 0.107,-0.421 0.448,-1.436 0.341,-1.015 2.233,-6.25 h 1.466 l -3.877,10.27 a 5.112,5.112 0 0 1 -1.344,2.16 2.863,2.863 0 0 1 -1.887,0.638 5.565,5.565 0 0 1 -1.241,-0.139 v -1.1 a 4.785,4.785 0 0 0 1.011,0.1 2.087,2.087 0 0 0 2.009,-1.579 l 0.5,-1.285 z m -0.963,4.503 a 4.974,4.974 0 0 1 -1.11,3.443 3.908,3.908 0 0 1 -3.069,1.239 4.057,4.057 0 0 1 -2.147,-0.567 3.746,3.746 0 0 1 -1.45,-1.631 5.659,5.659 0 0 1 -0.51,-2.484 4.974,4.974 0 0 1 1.1,-3.437 3.9,3.9 0 0 1 3.061,-1.23 3.815,3.815 0 0 1 3.008,1.26 4.954,4.954 0 0 1 1.117,3.407 z m -6.87,0 a 4.286,4.286 0 0 0 0.691,2.632 2.743,2.743 0 0 0 4.069,0 4.252,4.252 0 0 0 0.7,-2.637 4.184,4.184 0 0 0 -0.7,-2.613 2.441,2.441 0 0 0 -2.052,-0.893 2.4,2.4 0 0 0 -2.025,0.881 4.244,4.244 0 0 0 -0.683,2.63 z m -6.267,8.565 a 3.3,3.3 0 0 1 -1.267,-0.206 v -1.114 a 4,4 0 0 0 1.119,0.165 1.173,1.173 0 0 0 0.942,-0.35 1.6,1.6 0 0 0 0.3,-1.065 v -10.5 h 1.367 v 10.4 q -0.003,2.67 -2.461,2.67 z m 0.979,-15.511 a 0.913,0.913 0 0 1 0.23,-0.689 0.853,0.853 0 0 1 1.144,0 1.1,1.1 0 0 1 0,1.37 0.8,0.8 0 0 1 -0.568,0.227 0.789,0.789 0 0 1 -0.576,-0.227 0.922,0.922 0 0 1 -0.231,-0.68 z m -4.061,11.462 v -5.832 a 2.358,2.358 0 0 0 -0.5,-1.646 2.048,2.048 0 0 0 -1.573,-0.543 2.588,2.588 0 0 0 -2.073,0.766 3.865,3.865 0 0 0 -0.659,2.527 v 4.73 h -1.367 v -9.02 h 1.111 l 0.223,1.235 h 0.067 a 2.786,2.786 0 0 1 1.177,-1.033 3.822,3.822 0 0 1 1.686,-0.367 3.426,3.426 0 0 1 2.453,0.786 3.343,3.343 0 0 1 0.822,2.514 v 5.883 z m -8.631,0.001 h -6.706 V 77.86 h 6.706 v 1.242 h -5.306 v 3.876 h 4.986 v 1.235 h -4.986 v 4.426 h 5.306 z m -15.972,-0.873 a 1.235,1.235 0 0 1 0.251,-0.835 0.917,0.917 0 0 1 0.721,-0.283 0.975,0.975 0 0 1 0.745,0.283 1.179,1.179 0 0 1 0.267,0.835 1.153,1.153 0 0 1 -0.272,0.824 1.08,1.08 0 0 1 -1.436,0.028 1.125,1.125 0 0 1 -0.276,-0.852 z m -3.99,-0.341 h -0.074 a 3.213,3.213 0 0 1 -2.831,1.374 3.351,3.351 0 0 1 -2.753,-1.209 5.321,5.321 0 0 1 -0.984,-3.44 5.422,5.422 0 0 1 0.987,-3.465 3.33,3.33 0 0 1 2.75,-1.235 3.277,3.277 0 0 1 2.813,1.334 h 0.108 l -0.058,-0.65 -0.033,-0.634 v -3.666 h 1.369 v 12.8 h -1.11 z m -2.733,0.23 a 2.486,2.486 0 0 0 2.028,-0.761 3.833,3.833 0 0 0 0.631,-2.456 v -0.288 a 4.52,4.52 0 0 0 -0.638,-2.736 2.423,2.423 0 0 0 -2.037,-0.819 2.088,2.088 0 0 0 -1.839,0.935 4.636,4.636 0 0 0 -0.637,2.637 4.452,4.452 0 0 0 0.632,2.609 2.142,2.142 0 0 0 1.859,0.883 z m -7.581,0.983 v -5.832 a 2.358,2.358 0 0 0 -0.5,-1.646 2.048,2.048 0 0 0 -1.573,-0.543 2.592,2.592 0 0 0 -2.073,0.766 3.865,3.865 0 0 0 -0.654,2.523 v 4.73 h -1.365 v -9.016 h 1.111 l 0.221,1.235 h 0.067 a 2.786,2.786 0 0 1 1.177,-1.033 3.833,3.833 0 0 1 1.687,-0.367 3.425,3.425 0 0 1 2.451,0.786 3.343,3.343 0 0 1 0.824,2.514 v 5.883 z m -11.813,0.168 a 4.138,4.138 0 0 1 -3.156,-1.218 4.708,4.708 0 0 1 -1.156,-3.382 5.233,5.233 0 0 1 1.073,-3.465 3.573,3.573 0 0 1 2.885,-1.284 3.4,3.4 0 0 1 2.683,1.116 4.272,4.272 0 0 1 0.987,2.942 v 0.864 h -6.211 a 3.573,3.573 0 0 0 0.8,2.411 2.782,2.782 0 0 0 2.144,0.822 7.283,7.283 0 0 0 2.88,-0.608 v 1.217 a 7.208,7.208 0 0 1 -1.37,0.45 7.717,7.717 0 0 1 -1.559,0.135 z m -0.371,-8.2 a 2.229,2.229 0 0 0 -1.732,0.708 3.259,3.259 0 0 0 -0.763,1.959 h 4.716 a 3,3 0 0 0 -0.576,-1.979 2.027,2.027 0 0 0 -1.645,-0.695 z m -7.817,-3.429 a 0.908,0.908 0 0 1 0.231,-0.689 0.851,0.851 0 0 1 1.143,0 1.1,1.1 0 0 1 0,1.37 0.794,0.794 0 0 1 -0.568,0.227 0.783,0.783 0 0 1 -0.574,-0.227 0.916,0.916 0 0 1 -0.232,-0.681 z m 1.481,11.461 h -1.367 V 80.87 h 1.367 z m -4.129,-9.183 a 5.4,5.4 0 0 1 1.079,0.1 l -0.19,1.267 a 4.614,4.614 0 0 0 -0.987,-0.123 2.4,2.4 0 0 0 -1.873,0.889 3.233,3.233 0 0 0 -0.778,2.212 v 4.839 h -1.367 v -9.019 h 1.126 l 0.157,1.671 h 0.067 a 3.969,3.969 0 0 1 1.208,-1.358 2.735,2.735 0 0 1 1.558,-0.478 z m -11.208,9.184 h -1.4 V 77.86 h 6.707 v 1.242 h -5.308 v 4.4 h 4.987 v 1.242 h -4.987 z m -9.808,-0.001 -0.273,-1.284 h -0.064 a 3.8,3.8 0 0 1 -1.347,1.148 4.085,4.085 0 0 1 -1.674,0.3 3.011,3.011 0 0 1 -2.1,-0.691 2.523,2.523 0 0 1 -0.76,-1.966 q 0,-2.733 4.368,-2.864 l 1.53,-0.049 v -0.559 a 2.292,2.292 0 0 0 -0.456,-1.568 1.882,1.882 0 0 0 -1.462,-0.506 5.93,5.93 0 0 0 -2.549,0.691 l -0.421,-1.045 a 6.573,6.573 0 0 1 3.054,-0.775 3.438,3.438 0 0 1 2.391,0.717 2.99,2.99 0 0 1 0.777,2.3 v 6.155 z m -3.086,-0.963 a 2.778,2.778 0 0 0 2,-0.7 2.588,2.588 0 0 0 0.729,-1.959 v -0.815 l -1.367,0.058 a 4.971,4.971 0 0 0 -2.349,0.506 1.524,1.524 0 0 0 -0.72,1.395 1.4,1.4 0 0 0 0.447,1.126 1.863,1.863 0 0 0 1.256,0.389 z m -11.027,-0.25 h -0.073 a 3.215,3.215 0 0 1 -2.833,1.374 3.346,3.346 0 0 1 -2.751,-1.209 5.312,5.312 0 0 1 -0.984,-3.44 5.414,5.414 0 0 1 0.987,-3.465 3.326,3.326 0 0 1 2.748,-1.235 3.28,3.28 0 0 1 2.815,1.334 h 0.107 l -0.058,-0.65 -0.031,-0.634 v -3.666 h 1.364 v 12.8 h -1.107 z m -2.732,0.23 a 2.488,2.488 0 0 0 2.028,-0.761 3.842,3.842 0 0 0 0.631,-2.456 v -0.288 a 4.518,4.518 0 0 0 -0.64,-2.736 2.418,2.418 0 0 0 -2.036,-0.819 2.088,2.088 0 0 0 -1.839,0.935 4.624,4.624 0 0 0 -0.638,2.637 4.44,4.44 0 0 0 0.634,2.609 2.142,2.142 0 0 0 1.86,0.883 z m -7.579,0.983 v -5.832 a 2.351,2.351 0 0 0 -0.5,-1.646 2.044,2.044 0 0 0 -1.571,-0.543 2.593,2.593 0 0 0 -2.074,0.766 3.865,3.865 0 0 0 -0.657,2.527 v 4.73 h -1.367 v -9.02 h 1.111 l 0.221,1.235 h 0.067 a 2.8,2.8 0 0 1 1.177,-1.033 3.833,3.833 0 0 1 1.687,-0.367 3.425,3.425 0 0 1 2.451,0.786 3.343,3.343 0 0 1 0.823,2.514 v 5.883 z M 117.809,78.428 a 0.907,0.907 0 0 1 0.23,-0.689 0.851,0.851 0 0 1 1.143,0 1.1,1.1 0 0 1 0,1.37 0.792,0.792 0 0 1 -0.567,0.227 0.784,0.784 0 0 1 -0.576,-0.227 0.916,0.916 0 0 1 -0.23,-0.681 z m 1.481,11.461 h -1.367 V 80.87 h 1.367 z m -8.458,0.001 h -1.4 V 77.86 h 6.707 v 1.242 h -5.306 v 4.4 h 4.986 v 1.242 h -4.986 z"
         inkscape:label="slogan"
         class="slogan" />
    </symbol>
    <symbol
       id="logo" viewBox="0 0 329.67 96.124">
      <use
         id="use7683"
         xlink:href="#symbol" />
      <use
         id="use7704"
         xlink:href="#path-i" />
      <use
         id="use7727"
         xlink:href="#friend" />
      <use
         id="use7752"
         xlink:href="#slogan" />
    </symbol>
  </defs>
  <use
     xlink:href="#logo"
     id="use7810" />
</svg>
